<mxfile host="app.diagrams.net" modified="2023-10-13T10:47:46.383Z" agent="Mozilla/5.0 (Windows NT 10.0; Win64; x64) AppleWebKit/537.36 (KHTML, like Gecko) Chrome/118.0.0.0 Safari/537.36" version="22.0.4" etag="BbQGKKMOdTcyOmkiE1Mw" type="github">
  <diagram name="第 1 页" id="5iOcou6Y-PbHyzQFHp0G">
    <mxGraphModel>
      <root>
        <mxCell id="0" />
        <mxCell id="1" parent="0" />
      </root>
    </mxGraphModel>
  </diagram>
</mxfile>
